<mxfile host="app.diagrams.net" modified="2022-03-31T10:11:57.750Z" agent="5.0 (Macintosh; Intel Mac OS X 10_15_7) AppleWebKit/537.36 (KHTML, like Gecko) Chrome/99.0.4844.83 Safari/537.36" etag="QTuid_NzOhSF9zDxRih2" version="17.3.0" type="github">
  <diagram id="zf9PCMKYo2PM6vaO1gFk" name="Page-1">
    <mxGraphModel dx="946" dy="563" grid="1" gridSize="10" guides="1" tooltips="1" connect="1" arrows="1" fold="1" page="1" pageScale="1" pageWidth="850" pageHeight="1100" math="0" shadow="0">
      <root>
        <mxCell id="0" />
        <mxCell id="1" parent="0" />
        <mxCell id="UWx5PSQkW-oyX3951nql-3" value="" style="rounded=0;whiteSpace=wrap;html=1;fillColor=#dae8fc;strokeColor=#6c8ebf;" parent="1" vertex="1">
          <mxGeometry x="120" y="120" width="560" height="320" as="geometry" />
        </mxCell>
        <mxCell id="UWx5PSQkW-oyX3951nql-4" value="&lt;h3&gt;&lt;font face=&quot;Times New Roman&quot;&gt;Docker&lt;/font&gt;&lt;/h3&gt;" style="rounded=1;whiteSpace=wrap;html=1;" parent="1" vertex="1">
          <mxGeometry x="220" y="190" width="120" height="60" as="geometry" />
        </mxCell>
        <mxCell id="UWx5PSQkW-oyX3951nql-5" value="&lt;h3&gt;&lt;font face=&quot;Times New Roman&quot;&gt;Buildkit&lt;/font&gt;&lt;/h3&gt;" style="rounded=1;whiteSpace=wrap;html=1;" parent="1" vertex="1">
          <mxGeometry x="460" y="190" width="120" height="60" as="geometry" />
        </mxCell>
        <mxCell id="UWx5PSQkW-oyX3951nql-6" value="&lt;h3&gt;&lt;font face=&quot;Times New Roman&quot;&gt;Buildx&lt;/font&gt;&lt;/h3&gt;" style="rounded=1;whiteSpace=wrap;html=1;" parent="1" vertex="1">
          <mxGeometry x="340" y="330" width="120" height="60" as="geometry" />
        </mxCell>
        <mxCell id="UWx5PSQkW-oyX3951nql-12" value="" style="endArrow=classic;html=1;rounded=0;fontFamily=Times New Roman;entryX=0.667;entryY=0;entryDx=0;entryDy=0;entryPerimeter=0;exitX=0.5;exitY=1;exitDx=0;exitDy=0;" parent="1" source="UWx5PSQkW-oyX3951nql-5" target="UWx5PSQkW-oyX3951nql-6" edge="1">
          <mxGeometry width="50" height="50" relative="1" as="geometry">
            <mxPoint x="450" y="305" as="sourcePoint" />
            <mxPoint x="500" y="255" as="targetPoint" />
          </mxGeometry>
        </mxCell>
        <mxCell id="UWx5PSQkW-oyX3951nql-14" value="" style="endArrow=classic;html=1;rounded=0;fontFamily=Times New Roman;entryX=0.5;entryY=1;entryDx=0;entryDy=0;exitX=0.25;exitY=0;exitDx=0;exitDy=0;" parent="1" source="UWx5PSQkW-oyX3951nql-6" target="UWx5PSQkW-oyX3951nql-4" edge="1">
          <mxGeometry width="50" height="50" relative="1" as="geometry">
            <mxPoint x="530" y="260" as="sourcePoint" />
            <mxPoint x="430.03999999999996" y="340" as="targetPoint" />
          </mxGeometry>
        </mxCell>
      </root>
    </mxGraphModel>
  </diagram>
</mxfile>
